<svg width="45" height="45" viewBox="0 0 45 45" fill="none" xmlns="http://www.w3.org/2000/svg">
<g clip-path="url(#clip0_1_7)">
<path d="M0 12C0 5.37258 5.37258 0 12 0H33C39.6274 0 45 5.37258 45 12V33C45 39.6274 39.6274 45 33 45H12C5.37258 45 0 39.6274 0 33V12Z" fill="#D9D9D9" fill-opacity="0.1"/>
<path d="M25.148 36.139V23.7605H29.3012L29.9244 18.935H25.148V15.8546C25.148 14.4579 25.5342 13.5061 27.5393 13.5061L30.0925 13.5051V9.18893C29.6509 9.13155 28.1353 9 26.3713 9C22.6877 9 20.1659 11.2484 20.1659 15.3767V18.935H16V23.7605H20.1659V36.139H25.148Z" fill="white"/>
</g>
<defs>
<clipPath id="clip0_1_7">
<rect width="45" height="45" fill="white"/>
</clipPath>
</defs>
</svg>
