<svg width="45" height="45" viewBox="0 0 45 45" fill="none" xmlns="http://www.w3.org/2000/svg">
<g clip-path="url(#clip0_1_13)">
<path d="M0 12C0 5.37258 5.37258 0 12 0H33C39.6274 0 45 5.37258 45 12V33C45 39.6274 39.6274 45 33 45H12C5.37258 45 0 39.6274 0 33V12Z" fill="#D9D9D9" fill-opacity="0.1"/>
<path d="M29.527 9H16.7861C14.7211 9 12.7407 9.82032 11.2805 11.2805C9.82032 12.7407 9 14.7211 9 16.7861V29.527C9 31.592 9.82032 33.5724 11.2805 35.0326C12.7407 36.4928 14.7211 37.3131 16.7861 37.3131H29.527C31.592 37.3131 33.5724 36.4928 35.0326 35.0326C36.4928 33.5724 37.3131 31.592 37.3131 29.527V16.7861C37.3131 14.7211 36.4928 12.7407 35.0326 11.2805C33.5724 9.82032 31.592 9 29.527 9ZM34.8357 28.4086C34.8357 30.1132 34.1586 31.748 32.9533 32.9533C31.748 34.1586 30.1132 34.8357 28.4086 34.8357H17.9045C16.1999 34.8357 14.5652 34.1586 13.3598 32.9533C12.1545 31.748 11.4774 30.1132 11.4774 28.4086V17.9045C11.4774 16.1999 12.1545 14.5652 13.3598 13.3598C14.5652 12.1545 16.1999 11.4774 17.9045 11.4774H28.4086C30.1132 11.4774 31.748 12.1545 32.9533 13.3598C34.1586 14.5652 34.8357 16.1999 34.8357 17.9045V28.4086Z" fill="white"/>
<path d="M28.3199 18.0462L28.2527 17.9789L28.1961 17.9223C26.8579 16.5888 25.0455 15.8404 23.1563 15.8413C22.2023 15.8478 21.2589 16.0422 20.3801 16.4134C19.5012 16.7846 18.7041 17.3253 18.0343 18.0046C17.3645 18.684 16.8351 19.4886 16.4763 20.3727C16.1176 21.2567 15.9366 22.2027 15.9436 23.1567C15.9421 25.0928 16.7053 26.9511 18.067 28.3274C18.7341 29.0025 19.5289 29.538 20.4051 29.9026C21.2813 30.2672 22.2214 30.4536 23.1705 30.4509C24.5941 30.421 25.9782 29.9776 27.154 29.1746C28.3299 28.3716 29.2467 27.2438 29.7926 25.9287C30.3386 24.6136 30.49 23.1681 30.2285 21.7684C29.967 20.3688 29.3038 19.0754 28.3199 18.0462ZM23.1563 27.9558C22.2044 27.9691 21.27 27.699 20.472 27.1799C19.674 26.6607 19.0485 25.916 18.6749 25.0403C18.3013 24.1646 18.1967 23.1977 18.3742 22.2624C18.5517 21.327 19.0034 20.4657 19.6718 19.7878C20.3402 19.1098 21.1951 18.6461 22.1278 18.4554C23.0605 18.2647 24.0289 18.3557 24.9097 18.7169C25.7906 19.078 26.5441 19.693 27.0745 20.4836C27.6048 21.2742 27.8881 22.2047 27.8882 23.1567C27.8928 23.7826 27.7741 24.4032 27.5388 24.9832C27.3035 25.5632 26.9562 26.0911 26.5167 26.5368C26.0773 26.9825 25.5543 27.3372 24.9777 27.5807C24.4011 27.8242 23.7822 27.9516 23.1563 27.9558Z" fill="white"/>
<path d="M32.513 15.5052C32.5148 15.7323 32.4719 15.9575 32.3866 16.168C32.3013 16.3785 32.1753 16.5701 32.0159 16.7318C31.8565 16.8936 31.6667 17.0223 31.4574 17.1106C31.2482 17.1989 31.0236 17.245 30.7965 17.2464C30.5713 17.2463 30.3484 17.2015 30.1406 17.1147C29.9328 17.0278 29.7444 16.9006 29.5861 16.7403C29.3463 16.4971 29.1833 16.1888 29.1171 15.8537C29.0509 15.5186 29.0845 15.1715 29.2137 14.8553C29.343 14.5391 29.5622 14.2679 29.8442 14.0751C30.1262 13.8824 30.4585 13.7766 30.8 13.771C31.1997 13.7709 31.5868 13.9112 31.8936 14.1674L31.929 14.2028C31.9861 14.2492 32.0383 14.3014 32.0847 14.3585L32.1237 14.401C32.377 14.7131 32.5146 15.1032 32.513 15.5052Z" fill="white"/>
</g>
<defs>
<clipPath id="clip0_1_13">
<rect width="45" height="45" fill="white"/>
</clipPath>
</defs>
</svg>
