<svg width="45" height="45" viewBox="0 0 45 45" fill="none" xmlns="http://www.w3.org/2000/svg">
<g clip-path="url(#clip0_1_2)">
<path d="M0 12C0 5.37258 5.37258 0 12 0H33C39.6274 0 45 5.37258 45 12V33C45 39.6274 39.6274 45 33 45H12C5.37258 45 0 39.6274 0 33V12Z" fill="#D9D9D9" fill-opacity="0.1"/>
<path d="M34.9933 33.0002L34.9993 32.9992V24.1972C34.9993 19.8912 34.0723 16.5742 29.0383 16.5742C26.6183 16.5742 24.9943 17.9022 24.3313 19.1612H24.2613V16.9762H19.4883V32.9992H24.4583V25.0652C24.4583 22.9762 24.8543 20.9562 27.4413 20.9562C29.9903 20.9562 30.0283 23.3402 30.0283 25.1992V33.0002H34.9933Z" fill="white"/>
<path d="M11.3945 16.9771H16.3705V33H11.3945V16.9771Z" fill="white"/>
<path d="M13.882 9C12.291 9 11 10.291 11 11.882C11 13.473 12.291 14.791 13.882 14.791C15.473 14.791 16.764 13.473 16.764 11.882C16.763 10.291 15.472 9 13.882 9Z" fill="white"/>
</g>
<defs>
<clipPath id="clip0_1_2">
<rect width="45" height="45" fill="white"/>
</clipPath>
</defs>
</svg>
