<svg width="45" height="45" viewBox="0 0 45 45" fill="none" xmlns="http://www.w3.org/2000/svg">
<g clip-path="url(#clip0_1_10)">
<path d="M0 12C0 5.37258 5.37258 0 12 0H33C39.6274 0 45 5.37258 45 12V33C45 39.6274 39.6274 45 33 45H12C5.37258 45 0 39.6274 0 33V12Z" fill="#D9D9D9" fill-opacity="0.1"/>
<path d="M37 14.6045C35.9587 15.0462 34.8492 15.3389 33.6925 15.4811C34.8825 14.794 35.7908 13.7143 36.2178 12.4129C35.1082 13.0526 33.8832 13.5045 32.5777 13.7566C31.5243 12.6718 30.0228 12 28.3848 12C25.2068 12 22.6482 14.4945 22.6482 17.5525C22.6482 17.9925 22.6868 18.4155 22.7812 18.8183C18.009 18.5932 13.7863 16.3814 10.9495 13.012C10.4542 13.8429 10.1637 14.794 10.1637 15.8178C10.1637 17.7403 11.1875 19.4445 12.7135 20.4311C11.7912 20.4142 10.8865 20.1552 10.12 19.7474C10.12 19.7643 10.12 19.7863 10.12 19.8083C10.12 22.5058 12.1097 24.7465 14.719 25.2626C14.2517 25.3862 13.7425 25.4454 13.214 25.4454C12.8465 25.4454 12.4755 25.4251 12.1272 25.3506C12.871 27.5489 14.9815 29.1651 17.491 29.2175C15.538 30.6949 13.0582 31.5851 10.3738 31.5851C9.903 31.5851 9.4515 31.5648 9 31.5089C11.5427 33.0946 14.5563 34 17.806 34C28.369 34 34.144 25.5385 34.144 18.204C34.144 17.9586 34.1353 17.7217 34.123 17.4865C35.2622 16.7046 36.2195 15.7282 37 14.6045Z" fill="white"/>
</g>
<defs>
<clipPath id="clip0_1_10">
<rect width="45" height="45" fill="white"/>
</clipPath>
</defs>
</svg>
